<svg width="116" height="16" viewBox="0 0 116 16" fill="none" xmlns="http://www.w3.org/2000/svg">
<path d="M23.4566 7.09434V16H0V7.09434L4.64906 5.55472V9.90189C4.64906 9.90189 7.07924 9.55472 8.89057 9.40377V6.49057C8.89057 6.49057 6.98868 6.49057 6.61132 6.49057C7.26038 5.64528 11.7132 0.0150943 11.7132 0C11.7132 0 16.166 5.64528 16.8151 6.49057C16.4528 6.49057 14.5358 6.49057 14.5358 6.49057V9.40377C16.3623 9.55472 18.7774 9.90189 18.7774 9.90189V5.55472L23.4264 7.09434H23.4566ZM46.8679 6.00755C46.2792 5.70566 45.6151 5.50943 45.0717 5.50943C43.8189 5.50943 42.5811 6.21887 41.917 7.24528V5.50943H39.6226V15.9849H41.7962H41.917V15.7736V10.9283C41.9623 9.26792 42.9736 8.13585 44.4075 8.13585C45.8415 8.13585 45.0415 8.16604 45.2528 8.2566L45.3585 8.30189L45.3887 8.24151C45.7358 7.39623 46.2641 6.64151 46.9132 6.02264L46.8528 5.99245L46.8679 6.00755ZM80.6339 10.6566C79.8792 9.96226 78.6717 9.63019 76.8151 9.63019C75.9547 9.63019 75.3207 9.53962 75.049 9.44906C74.7321 9.35849 74.5811 9.25283 74.5207 9.19245C74.4906 9.16226 74.3396 8.96604 74.3698 8.78491C74.4151 8.42264 75.2302 7.86415 76.8151 7.83396C77.9623 7.80377 79.2453 7.90943 80.9811 8.81509L81.2075 8.93585L80.6189 6.32453L80.5585 6.29434C79.2302 5.75094 77.9774 5.49434 76.7396 5.52453C72.7396 5.64528 72.1962 7.98491 72.1358 8.45283C71.9396 9.82641 72.8906 10.7472 73.0113 10.8528C73.7509 11.5321 74.9283 11.8642 76.7094 11.8792H76.8302C78.6415 11.8792 79.0038 12.1811 79.1396 12.3019C79.1698 12.3321 79.3207 12.5283 79.2906 12.7094C79.2453 13.0566 78.5358 13.6151 76.8453 13.6604C75.7736 13.6906 74.4302 13.6 72.6491 12.6642L72.4226 12.5434L73.0113 15.1547L73.0717 15.1849C74.3245 15.7132 75.5019 15.9547 76.6792 15.9547C77.8566 15.9547 76.8302 15.9547 76.9207 15.9547C80.9207 15.834 81.4641 13.4943 81.5245 13.0264C81.7207 11.6528 80.7698 10.7321 80.649 10.6264L80.6339 10.6566ZM114.475 10.6415C113.721 9.94717 112.498 9.61509 110.642 9.61509C109.781 9.61509 109.147 9.52453 108.86 9.43396C108.543 9.3434 108.392 9.23774 108.332 9.17736C108.302 9.14717 108.151 8.95094 108.166 8.76981C108.211 8.40755 109.026 7.84906 110.611 7.80377C111.758 7.77358 113.057 7.87925 114.792 8.8L115.019 8.92075L114.415 6.29434L114.355 6.26415C113.026 5.70566 111.774 5.46415 110.521 5.49434C106.506 5.61509 105.962 7.96981 105.902 8.43774C105.706 9.81132 106.657 10.7321 106.777 10.8377C107.517 11.5321 108.709 11.8491 110.491 11.8641H110.611C112.423 11.8641 112.785 12.166 112.921 12.2868C112.951 12.317 113.102 12.5132 113.072 12.6943C113.026 13.0415 112.317 13.6 110.626 13.6604C109.54 13.6906 108.196 13.6 106.43 12.6642L106.204 12.5434L106.792 15.1698L106.853 15.2C108.121 15.7283 109.298 15.9849 110.475 15.9849C111.653 15.9849 110.626 15.9849 110.717 15.9849C114.732 15.8641 115.275 13.5094 115.336 13.0415C115.532 11.6679 114.581 10.7472 114.46 10.6415H114.475ZM62.1887 13.1623L59.2906 5.52453H56.8453L60.8302 15.9094L60.8604 15.9849H63.5321L67.4717 5.67547L67.5321 5.50943H65.0868L62.1887 13.1472V13.1623ZM68.6641 15.9849H70.9585V5.52453H68.6641V15.9849ZM70.9434 2.38491H68.6792V4.69434L70.9434 3.93962V2.36981V2.38491ZM93.1321 10.7623C93.1321 13.6453 90.7924 15.9849 87.9094 15.9849C85.0264 15.9849 82.6868 13.6453 82.6868 10.7623C82.6868 7.87925 85.0264 5.53962 87.9094 5.53962C90.7924 5.53962 93.1321 7.87925 93.1321 10.7623ZM90.8679 10.7623C90.8679 9.11698 89.5396 7.78868 87.8943 7.78868C86.249 7.78868 84.9207 9.11698 84.9207 10.7623C84.9207 12.4075 86.249 13.7358 87.8943 13.7358C89.5396 13.7358 90.8679 12.4075 90.8679 10.7623ZM91.1849 2.38491H85.3736L84.6038 4.69434H90.4151L91.1849 2.38491ZM38.4755 7.12453C38.4755 9.75094 36.3472 11.8792 33.7208 11.8792H30.3094V15.9547H28.0151V2.38491H30.3094H33.7208C36.3472 2.38491 38.4755 4.51321 38.4755 7.13962V7.12453ZM36.2113 7.12453C36.2113 5.78113 35.1245 4.69434 33.7811 4.69434H30.3245V11.0038L31.4717 9.55472H33.7962C35.1396 9.55472 36.2264 8.46792 36.2264 7.12453H36.2113ZM104.755 10.7472C104.755 11.0943 104.725 11.4415 104.649 11.7887V11.8792H96.7849C97.2377 12.966 98.3245 13.6604 99.517 13.7057C100.679 13.7509 102.038 13.6755 103.789 12.6642L104.03 12.5283L103.457 15.1547L103.411 15.1849C102.883 15.4566 102.732 15.5019 102.008 15.7283C101.147 15.9849 100.226 15.9849 99.5623 15.9849H99.5321C96.6339 15.9849 94.2792 13.6302 94.2792 10.7472C94.2792 7.86415 96.6339 5.50943 99.5321 5.50943C102.43 5.50943 104.785 7.86415 104.785 10.7472H104.755ZM99.5019 7.80377C97.7811 7.80377 96.8755 9.13208 96.6339 9.99245H102.355C102.053 8.95094 101.072 7.80377 99.5019 7.80377ZM56.8453 10.7472C56.8453 11.0943 56.8151 11.4415 56.7396 11.7887V11.8792H48.8755C49.3283 12.966 50.4151 13.6604 51.6075 13.7057C52.7698 13.7509 54.1283 13.6755 55.8792 12.6642L56.1208 12.5283L55.5472 15.1547L55.5019 15.1849C54.9736 15.4566 54.8226 15.5019 54.0981 15.7283C53.2377 15.9849 52.317 15.9849 51.6528 15.9849H51.6226C48.7245 15.9849 46.3698 13.6302 46.3698 10.7472C46.3698 7.86415 48.7245 5.50943 51.6226 5.50943C54.5208 5.50943 56.8755 7.86415 56.8755 10.7472H56.8453ZM51.5925 7.80377C49.8717 7.80377 48.966 9.13208 48.7245 9.99245H54.4453C54.1434 8.95094 53.1623 7.80377 51.5925 7.80377Z" fill="white"/>
</svg>
